<svg width="24" height="24" viewBox="0 0 24 24" fill="none" xmlns="http://www.w3.org/2000/svg">
<g clip-path="url(#clip0_1408_293)">
<path fill-rule="evenodd" clip-rule="evenodd" d="M17.1099 3.00564C17.2593 3.02209 17.403 3.07199 17.5304 3.15163C17.6578 3.23127 17.7657 3.3386 17.8459 3.46564C21.0459 8.53264 20.5629 13.9116 17.8899 17.2996C16.5549 18.9906 14.6799 20.1706 12.4929 20.5196C10.5849 20.8226 8.49989 20.4836 6.39889 19.3836C6.20589 19.9926 6.06889 20.5836 5.98989 21.1406C5.95146 21.4023 5.81095 21.6381 5.5991 21.7964C5.38726 21.9547 5.12133 22.0226 4.85951 21.9853C4.59769 21.948 4.3613 21.8086 4.20207 21.5974C4.04285 21.3863 3.97375 21.1206 4.00989 20.8586C4.14845 19.9306 4.38373 19.0197 4.71189 18.1406C3.17489 16.4506 2.75489 14.3126 2.94189 12.4026C3.14789 10.2956 4.10889 8.27464 5.35989 7.23164C7.03189 5.83864 8.78789 5.26664 10.3119 4.98664C10.9779 4.87118 11.6485 4.7841 12.3219 4.72564C12.8009 4.67764 13.2899 4.64564 13.7579 4.52964C14.4505 4.36168 15.1125 4.08635 15.7199 3.71364C16.1619 3.43764 16.5389 2.94164 17.1099 3.00564ZM7.14989 17.5176C8.26189 15.2506 10.0799 13.0776 12.4469 11.8936C12.5654 11.8356 12.6713 11.7546 12.7583 11.6554C12.8454 11.5563 12.912 11.4408 12.9542 11.3158C12.9965 11.1908 13.0136 11.0586 13.0045 10.9269C12.9954 10.7953 12.9604 10.6667 12.9014 10.5486C12.8424 10.4306 12.7606 10.3254 12.6608 10.2391C12.5609 10.1528 12.445 10.0871 12.3196 10.0458C12.1942 10.0045 12.062 9.98849 11.9304 9.99859C11.7988 10.0087 11.6705 10.0447 11.5529 10.1046C8.94489 11.4086 6.94689 13.6636 5.64789 16.0686C5.90609 16.4894 6.22637 16.8686 6.59789 17.1936C6.78289 17.3096 6.96689 17.4166 7.14989 17.5176Z" fill="#4CAF4F"/>
</g>
<defs>
<clipPath id="clip0_1408_293">
<rect width="24" height="24" fill="white"/>
</clipPath>
</defs>
</svg>
