<svg width="24" height="24" viewBox="0 0 24 24" fill="none" xmlns="http://www.w3.org/2000/svg">
<g clip-path="url(#clip0_1408_297)">
<path fill-rule="evenodd" clip-rule="evenodd" d="M19.5556 4.34279C20.2985 5.08567 20.8878 5.9676 21.2899 6.93823C21.6919 7.90886 21.8989 8.94918 21.8989 9.99979C21.8989 11.0504 21.6919 12.0907 21.2899 13.0614C20.8878 14.032 20.2985 14.9139 19.5556 15.6568L13.8996 21.3138C13.5245 21.6887 13.0159 21.8994 12.4856 21.8994C11.9552 21.8994 11.4466 21.6887 11.0716 21.3138L8.94957 19.1918C8.57463 18.8167 8.364 18.3081 8.364 17.7778C8.364 17.2475 8.57463 16.7388 8.94957 16.3638L14.6066 10.7068C14.7941 10.5192 14.8994 10.2647 14.8993 9.99944C14.8992 9.73417 14.7937 9.4798 14.6061 9.29229C14.4184 9.10478 14.164 8.9995 13.8987 8.99959C13.6334 8.99968 13.3791 9.10515 13.1916 9.29279L7.53557 14.9498C7.34985 15.1356 7.12933 15.283 6.88663 15.3835C6.64392 15.4841 6.38378 15.5359 6.12107 15.5359C5.85836 15.5359 5.59822 15.4841 5.35552 15.3835C5.11282 15.283 4.8923 15.1356 4.70657 14.9498L2.58557 12.8278C2.21063 12.4527 2 11.9441 2 11.4138C2 10.8835 2.21063 10.3748 2.58557 9.99979L8.24257 4.34279C9.74284 2.84272 11.7775 2 13.8991 2C16.0206 2 18.0553 2.84272 19.5556 4.34279ZM13.1916 16.3638C13.0116 16.1844 12.7701 16.0803 12.5162 16.0726C12.2622 16.0648 12.0149 16.154 11.8243 16.322C11.6337 16.4901 11.5143 16.7243 11.4902 16.9773C11.4661 17.2302 11.5392 17.4828 11.6946 17.6838L11.7776 17.7778L12.4846 18.4848C12.6641 18.666 12.9061 18.7718 13.1611 18.7805C13.4161 18.7891 13.6647 18.7 13.8562 18.5313C14.0476 18.3627 14.1673 18.1272 14.1908 17.8732C14.2143 17.6191 14.1398 17.3657 13.9826 17.1648L13.8986 17.0708L13.1916 16.3638ZM5.41357 9.99979C5.2261 10.1873 5.12079 10.4416 5.12079 10.7068C5.12079 10.972 5.2261 11.2263 5.41357 11.4138L6.12057 12.1208C6.30808 12.3084 6.56245 12.4139 6.82772 12.414C7.09299 12.4141 7.34743 12.3088 7.53507 12.1213C7.72271 11.9338 7.82818 11.6794 7.82828 11.4141C7.82837 11.1489 7.72308 10.8944 7.53557 10.7068L6.82757 9.99979C6.64005 9.81232 6.38574 9.70701 6.12057 9.70701C5.85541 9.70701 5.6011 9.81232 5.41357 9.99979Z" fill="#4CAF4F"/>
</g>
<defs>
<clipPath id="clip0_1408_297">
<rect width="24" height="24" fill="white"/>
</clipPath>
</defs>
</svg>
